<svg xmlns="http://www.w3.org/2000/svg" xmlns:xlink="http://www.w3.org/1999/xlink" width="247.803" height="210.314" viewBox="0 0 247.803 210.314"><defs><clipPath id="a"><path d="M0,14.444H138.01v-153.1H0Z" transform="translate(0 138.66)" fill="#611122"/></clipPath></defs><g transform="translate(-63.598 -197.262)"><g transform="translate(118.49 360.098)"><g transform="translate(0 -138.66)" clip-path="url(#a)"><g transform="translate(0 0)"><path d="M12.467,10.982,9.83,4.628l.836.464V-14.756A97.52,97.52,0,0,0,7.813-37.95l7.279,1.628-2.728-9.457L9.638-55.235A87.8,87.8,0,0,0-3.245-81.167l.907-2.82L.54-92.88l2.866-8.9-9.247,1.328L-15.1-99.118l-3.086.439c-2.087-2.034-3.4-3.152-3.417-3.171l-2.069-1.778-2.089-1.793-2.711.473-2.712.469-19.5,3.394-19.5-3.394-2.711-.469-2.715-.473-2.088,1.793-2.067,1.778c-.018.019-1.332,1.137-3.416,3.171l-3.087-.439-9.252-1.329-9.254-1.328,2.872,8.9,2.879,8.893.905,2.82a87.8,87.8,0,0,0-12.885,25.931l-2.727,9.456-2.724,9.457,7.28-1.628a97.229,97.229,0,0,0-2.855,23.194V5.092l.836-.464-2.64,6.353-5.858,14.111,13.77-6.614,12.025-5.773c3.4,6.13,9.3,12.4,17.839,18.992A164.624,164.624,0,0,0-56.268,44.639l2.791,1.526,2.795,1.518,2.8-1.518,2.8-1.526A164.617,164.617,0,0,0-25.307,31.7c8.543-6.6,14.439-12.861,17.833-18.992l12.03,5.773,13.772,6.614ZM-6.689,6.608-10.455,4.8c-1.914,6.9-7.988,14.233-18.418,22.277a159.441,159.441,0,0,1-19,12.443l-2.8,1.523-2.795-1.523a159.307,159.307,0,0,1-19-12.443C-82.91,19.034-88.985,11.7-90.9,4.8l-3.764,1.806-13.768,6.607,5.852-14.1a67.957,67.957,0,0,0,2.51-7.357l-6.116,3.412v-9.926A91.989,91.989,0,0,1-100.7-45.822l-7.415,1.66,2.724-9.457c2.513-8.727,7.13-17.639,13.736-26.527l-1.815-5.632-2.876-8.894,9.252,1.328,5.976.857c2.995-3.066,5.035-4.831,5.14-4.919l2.088-1.8,2.713.474,20.5,3.566,20.5-3.566,2.712-.474,2.087,1.8c.1.088,2.144,1.853,5.14,4.919l5.976-.857,9.254-1.328-2.876,8.894L-9.7-80.147c6.61,8.887,11.219,17.8,13.736,26.527l2.725,9.457-7.417-1.66A92.014,92.014,0,0,1,4.833-14.756v9.926L-1.284-8.241A67.5,67.5,0,0,0,1.23-.884l5.851,14.1Z" transform="translate(119.682 105.421)" fill="#611122"/></g><g transform="translate(45.41 30.055)"><path d="M4.044,0-9.763,5.936l1.8,7.447c-1.113-.256-2.24-.507-3.258-.729-2.185-.488-4.009-.847-4.009-.847s-1.822.359-4.009.847c-1.019.222-2.14.473-3.257.729l1.8-7.447L-34.506,0l9.982,6.967L-38.823,4.5l5.154,6.066A47.7,47.7,0,0,1-21.918,9.014l-3.326,5.014-.023.006c0,4.589.367,5.137,2.6,5.137-.958-1.176-.637-2.65-.637-3.725a8.5,8.5,0,0,1,8.067,5.824v.006a8.5,8.5,0,0,1,8.065-5.83c0,1.075.326,2.55-.63,3.725,2.234,0,2.6-.548,2.6-5.137a.081.081,0,0,0-.026-.006L-8.547,9.014A47.665,47.665,0,0,1,3.2,10.569L8.361,4.5l-14.3,2.465Z" transform="translate(38.823)" fill="#611122"/></g></g><g transform="translate(59.821 -109.81)"><path d="M.866.459,10.045-4.41.862-1.048-8.318-4.41.862.457Z" transform="translate(8.318 4.41)" fill="#611122"/></g><g transform="translate(62.713 -105.413)"><path d="M0,0,6.288,3.335l0,0L12.576,0,6.288,2.307Z" fill="#611122"/></g><g transform="translate(0 -138.66)" clip-path="url(#a)"><g transform="translate(19.325 12.438)"><path d="M9.374,7.38a83.107,83.107,0,0,0-9.738-39.3l9.157,2.049C5.789-40.309-.2-49.731-5.827-56.9l2.758-8.539-8.954,1.289a92.469,92.469,0,0,0-6.785-6.7l-21.5,3.739-21.5-3.739a92.861,92.861,0,0,0-6.786,6.7l-8.957-1.289,2.758,8.539C-80.415-49.731-86.4-40.309-89.41-29.869l9.162-2.049a83.107,83.107,0,0,0-9.738,39.3l8.855-4.928s-1.953,12.033-5.692,21.037L-75.4,18.011l.04,4.207c0,14.96,33.158,33.284,35.051,34.318h.012C-38.4,55.5-5.252,37.178-5.252,22.218l.045-4.207L6.206,23.489C2.469,14.485.517,2.452.517,2.452ZM-40.305,31.114-58,17.553-55.464-4l1.37,19.607c3.279,2.52,10.208,6.342,13.782,9.211,3.574-2.869,10.507-6.691,13.79-9.211L-25.153-4l2.537,21.557ZM-29.98-20.9-40.3-22.813-50.636-20.9l-1.286,10.18-3.066-12.889L-40.306-27.4l14.68,3.794L-28.691-10.72Zm.066,35.329-10.392,6.427-10.42-6.427,1.544-11.271,1.65,8.541,7.227,3.467,7.2-3.467,1.647-8.541ZM-18.535-37.5c1.157-1.251,2.44-2.917,2.44-2.917l-9.472-1.056a19.762,19.762,0,0,1,3.718,3.007c3.1,3.557,3.634,8.465-.57,12.735,0,.032-17.891-4.665-17.891-4.665L-58.2-25.73c-4.2-4.271-3.663-9.179-.571-12.735a19.81,19.81,0,0,1,3.724-3.007l-9.473,1.056s1.283,1.666,2.44,2.917l-5.343,1.556s.645-16.671,8.933-22.333l18.179,5.043,18.185-5.043c8.281,5.662,8.928,22.333,8.928,22.333Z" transform="translate(89.985 70.847)" fill="#611122"/></g></g></g><path d="M71.013,93.254H59.359V129.86L36.424,107V93.254H4.6V78.088L27.683-.13H59.359V77.192H71.013ZM36.424,77.192V34.908L25.74,77.192ZM252.4,93.254H240.747V129.86L217.812,107V93.254H185.987V78.088L209.072-.13h31.676V77.192H252.4ZM217.812,77.192V34.908L207.129,77.192Z" transform="translate(59 232)" fill="#611122"/><path d="M16-8.239a10.68,10.68,0,0,1-.882,4.481,6.733,6.733,0,0,1-2.52,2.971A6.9,6.9,0,0,1,8.811.254,6.566,6.566,0,0,1,3.58-2.063,9.263,9.263,0,0,1,1.587-8.315v-1.9a10.614,10.614,0,0,1,.9-4.475,6.836,6.836,0,0,1,2.533-3,6.845,6.845,0,0,1,3.771-1.047,6.908,6.908,0,0,1,3.764,1.028,6.755,6.755,0,0,1,2.52,2.907A10.463,10.463,0,0,1,16-10.448Zm-1.562-2.006a8.169,8.169,0,0,0-1.511-5.23,5.009,5.009,0,0,0-4.139-1.892,5,5,0,0,0-4.107,1.9,8.235,8.235,0,0,0-1.53,5.3v1.93A8.169,8.169,0,0,0,4.672-3.028,5,5,0,0,0,8.811-1.1,4.959,4.959,0,0,0,12.949-3,8.387,8.387,0,0,0,14.435-8.29Zm4.3,3.174a8.083,8.083,0,0,1,.768-3.567,5.854,5.854,0,0,1,2.171-2.469,5.847,5.847,0,0,1,3.18-.882A5.651,5.651,0,0,1,29.3-12.067,7.411,7.411,0,0,1,31-6.97v.317a8.154,8.154,0,0,1-.768,3.586A5.735,5.735,0,0,1,28.069-.609a5.935,5.935,0,0,1-3.187.863,5.656,5.656,0,0,1-4.437-1.923,7.394,7.394,0,0,1-1.708-5.1Zm1.523.419a6.233,6.233,0,0,0,1.276,4.043,4.092,4.092,0,0,0,3.345,1.581,4.079,4.079,0,0,0,3.333-1.581,6.438,6.438,0,0,0,1.276-4.17v-.292a6.988,6.988,0,0,0-.584-2.882,4.692,4.692,0,0,0-1.638-2.025,4.185,4.185,0,0,0-2.412-.717A4.059,4.059,0,0,0,21.544-11.1a6.448,6.448,0,0,0-1.282,4.17ZM33.3-7.071a8.083,8.083,0,0,1,.768-3.567,5.854,5.854,0,0,1,2.171-2.469,5.847,5.847,0,0,1,3.18-.882,5.651,5.651,0,0,1,4.443,1.923,7.411,7.411,0,0,1,1.7,5.1v.317A8.154,8.154,0,0,1,44.8-3.066,5.735,5.735,0,0,1,42.631-.609a5.935,5.935,0,0,1-3.187.863,5.656,5.656,0,0,1-4.437-1.923,7.394,7.394,0,0,1-1.708-5.1Zm1.523.419A6.233,6.233,0,0,0,36.1-2.609a4.092,4.092,0,0,0,3.345,1.581,4.079,4.079,0,0,0,3.333-1.581,6.438,6.438,0,0,0,1.276-4.17v-.292a6.988,6.988,0,0,0-.584-2.882,4.692,4.692,0,0,0-1.638-2.025,4.185,4.185,0,0,0-2.412-.717A4.059,4.059,0,0,0,36.105-11.1a6.448,6.448,0,0,0-1.282,4.17Zm24.921-.076a8.272,8.272,0,0,1-1.422,5.1A4.529,4.529,0,0,1,54.514.254,5.085,5.085,0,0,1,50.2-1.727V5.281H48.687V-13.736H50.1l.076,1.942a4.875,4.875,0,0,1,4.3-2.2,4.569,4.569,0,0,1,3.866,1.866,8.455,8.455,0,0,1,1.4,5.18ZM58.221-7a7.065,7.065,0,0,0-1.079-4.151,3.48,3.48,0,0,0-3.009-1.523,4.205,4.205,0,0,0-2.4.673A4.232,4.232,0,0,0,50.2-10.042v6.589a4.034,4.034,0,0,0,1.562,1.8,4.5,4.5,0,0,0,2.4.622,3.447,3.447,0,0,0,2.99-1.53A7.693,7.693,0,0,0,58.221-7Zm13.114,3.5a2.165,2.165,0,0,0-.908-1.815,7,7,0,0,0-2.736-1.073,12.343,12.343,0,0,1-2.837-.889,3.78,3.78,0,0,1-1.5-1.225,3.056,3.056,0,0,1-.489-1.752,3.268,3.268,0,0,1,1.358-2.685A5.487,5.487,0,0,1,67.7-13.99a5.647,5.647,0,0,1,3.688,1.136,3.647,3.647,0,0,1,1.39,2.964H71.259A2.46,2.46,0,0,0,70.25-11.9a3.971,3.971,0,0,0-2.545-.8,3.973,3.973,0,0,0-2.406.667,2.057,2.057,0,0,0-.908,1.733A1.873,1.873,0,0,0,65.146-8.7,7.99,7.99,0,0,0,67.9-7.668a12.948,12.948,0,0,1,3,1,3.88,3.88,0,0,1,1.479,1.282,3.282,3.282,0,0,1,.482,1.815,3.29,3.29,0,0,1-1.4,2.78A5.993,5.993,0,0,1,67.793.254,6.153,6.153,0,0,1,63.9-.908,3.576,3.576,0,0,1,62.41-3.847h1.523a2.642,2.642,0,0,0,1.124,2.076,4.593,4.593,0,0,0,2.736.743,4.317,4.317,0,0,0,2.564-.7A2.1,2.1,0,0,0,71.335-3.491ZM77.9-5.142H76.489l-.076-13.343h1.574ZM76.235-.889a1.028,1.028,0,0,1,.279-.73.993.993,0,0,1,.762-.3,1.014,1.014,0,0,1,.768.3,1.016,1.016,0,0,1,.286.73.957.957,0,0,1-.286.7A1.038,1.038,0,0,1,77.276.1a1.016,1.016,0,0,1-.762-.286A.969.969,0,0,1,76.235-.889Z" transform="translate(220 216)" fill="#611122"/><path d="M3.878-6.123V0H1.815V-15.641H7.584a5.8,5.8,0,0,1,4.023,1.311,4.443,4.443,0,0,1,1.456,3.47,4.384,4.384,0,0,1-1.423,3.507,6.055,6.055,0,0,1-4.077,1.23Zm0-1.687H7.584a3.71,3.71,0,0,0,2.535-.779A2.845,2.845,0,0,0,11-10.839a2.939,2.939,0,0,0-.881-2.234,3.475,3.475,0,0,0-2.417-.87H3.878ZM22.44,0a4.175,4.175,0,0,1-.279-1.225A4.434,4.434,0,0,1,18.853.215a4.1,4.1,0,0,1-2.82-.972,3.145,3.145,0,0,1-1.1-2.465,3.286,3.286,0,0,1,1.38-2.82,6.508,6.508,0,0,1,3.883-1h1.934V-7.96a2.232,2.232,0,0,0-.623-1.66,2.5,2.5,0,0,0-1.837-.618,2.9,2.9,0,0,0-1.783.537,1.583,1.583,0,0,0-.72,1.3h-2a2.743,2.743,0,0,1,.618-1.681,4.216,4.216,0,0,1,1.676-1.284,5.638,5.638,0,0,1,2.326-.473,4.6,4.6,0,0,1,3.147,1,3.623,3.623,0,0,1,1.182,2.766v5.35a6.54,6.54,0,0,0,.408,2.546V0Zm-3.3-1.515A3.493,3.493,0,0,0,20.915-2a2.924,2.924,0,0,0,1.214-1.257V-5.64H20.571q-3.652,0-3.652,2.138a1.809,1.809,0,0,0,.623,1.461A2.4,2.4,0,0,0,19.143-1.515Zm7.616-4.394a6.831,6.831,0,0,1,1.257-4.324,4.019,4.019,0,0,1,3.33-1.606,4,4,0,0,1,3.319,1.5l.1-1.289h1.815V-.279A4.728,4.728,0,0,1,35.24,3.276a4.935,4.935,0,0,1-3.593,1.3,5.978,5.978,0,0,1-2.46-.537A4.235,4.235,0,0,1,27.35,2.567l1.031-1.192a3.886,3.886,0,0,0,3.126,1.579,3.045,3.045,0,0,0,2.261-.816,3.12,3.12,0,0,0,.811-2.3v-1A4.085,4.085,0,0,1,31.324.215a3.97,3.97,0,0,1-3.3-1.644A7.182,7.182,0,0,1,26.759-5.908Zm2,.226a5.211,5.211,0,0,0,.806,3.088,2.618,2.618,0,0,0,2.256,1.123A2.911,2.911,0,0,0,34.579-3.18V-8.486a2.945,2.945,0,0,0-2.739-1.665,2.641,2.641,0,0,0-2.267,1.128A5.676,5.676,0,0,0,28.757-5.683ZM44.4.215a5.078,5.078,0,0,1-3.846-1.552,5.761,5.761,0,0,1-1.482-4.152v-.365a6.975,6.975,0,0,1,.661-3.088,5.154,5.154,0,0,1,1.848-2.127,4.645,4.645,0,0,1,2.573-.768,4.353,4.353,0,0,1,3.523,1.493,6.465,6.465,0,0,1,1.257,4.275v.827H41.057a4.132,4.132,0,0,0,1,2.777A3.157,3.157,0,0,0,44.5-1.407a3.461,3.461,0,0,0,1.783-.43,4.48,4.48,0,0,0,1.278-1.139l1.214.945A4.881,4.881,0,0,1,44.4.215Zm-.247-10.42a2.651,2.651,0,0,0-2.02.875,4.255,4.255,0,0,0-1.01,2.455h5.822v-.15a3.785,3.785,0,0,0-.816-2.347A2.5,2.5,0,0,0,44.15-10.205Zm14.405-1.418.064,1.461a4.236,4.236,0,0,1,3.48-1.676q3.685,0,3.717,4.157V0H63.83V-7.691a2.676,2.676,0,0,0-.575-1.858,2.3,2.3,0,0,0-1.756-.6,2.868,2.868,0,0,0-1.7.516,3.5,3.5,0,0,0-1.139,1.354V0H56.676V-11.623Zm9.732,5.7a6.865,6.865,0,0,1,.671-3.072A5.009,5.009,0,0,1,70.829-11.1a5.088,5.088,0,0,1,2.734-.741,4.9,4.9,0,0,1,3.84,1.644,6.323,6.323,0,0,1,1.466,4.372v.14a6.925,6.925,0,0,1-.65,3.045,4.935,4.935,0,0,1-1.858,2.1,5.147,5.147,0,0,1-2.777.752,4.889,4.889,0,0,1-3.83-1.644,6.291,6.291,0,0,1-1.466-4.351Zm2,.236a4.972,4.972,0,0,0,.9,3.1,2.871,2.871,0,0,0,2.4,1.171A2.853,2.853,0,0,0,75.99-2.594a5.437,5.437,0,0,0,.892-3.325,4.964,4.964,0,0,0-.908-3.1,2.886,2.886,0,0,0-2.412-1.187,2.854,2.854,0,0,0-2.374,1.171A5.4,5.4,0,0,0,70.286-5.683Zm13.771-8.755v2.814h2.17v1.536h-2.17v7.208a1.61,1.61,0,0,0,.29,1.047,1.221,1.221,0,0,0,.988.349,4.811,4.811,0,0,0,.945-.129V0a5.761,5.761,0,0,1-1.525.215,2.475,2.475,0,0,1-2.009-.806,3.461,3.461,0,0,1-.677-2.288v-7.208H79.954v-1.536H82.07v-2.814ZM94.972,0V-10.087H93.135v-1.536h1.837v-1.192a3.958,3.958,0,0,1,1-2.89A3.774,3.774,0,0,1,98.8-16.726a5.215,5.215,0,0,1,1.364.183l-.107,1.611a5.708,5.708,0,0,0-1.074-.1,1.942,1.942,0,0,0-1.493.564,2.283,2.283,0,0,0-.526,1.617v1.225H99.44v1.536H96.959V0Zm6.134-5.919a6.865,6.865,0,0,1,.671-3.072,5.009,5.009,0,0,1,1.869-2.105,5.088,5.088,0,0,1,2.734-.741,4.9,4.9,0,0,1,3.84,1.644,6.323,6.323,0,0,1,1.466,4.372v.14a6.925,6.925,0,0,1-.65,3.045,4.935,4.935,0,0,1-1.858,2.1A5.147,5.147,0,0,1,106.4.215a4.889,4.889,0,0,1-3.83-1.644,6.291,6.291,0,0,1-1.466-4.351Zm2,.236a4.972,4.972,0,0,0,.9,3.1,2.871,2.871,0,0,0,2.4,1.171,2.853,2.853,0,0,0,2.406-1.187,5.437,5.437,0,0,0,.892-3.325,4.964,4.964,0,0,0-.908-3.1,2.886,2.886,0,0,0-2.412-1.187,2.854,2.854,0,0,0-2.374,1.171A5.4,5.4,0,0,0,103.1-5.683Zm18.251,4.533A4.221,4.221,0,0,1,117.949.215a3.613,3.613,0,0,1-2.831-1.08,4.673,4.673,0,0,1-.983-3.2v-7.562h1.987v7.509q0,2.643,2.148,2.643a2.975,2.975,0,0,0,3.029-1.7v-8.454h1.987V0H121.4Zm6.832-10.474.064,1.461a4.236,4.236,0,0,1,3.48-1.676q3.685,0,3.717,4.157V0h-1.987V-7.691a2.676,2.676,0,0,0-.575-1.858,2.3,2.3,0,0,0-1.756-.6,2.868,2.868,0,0,0-1.7.516,3.5,3.5,0,0,0-1.139,1.354V0h-1.987V-11.623Zm9.775,5.715a6.809,6.809,0,0,1,1.268-4.3,4.008,4.008,0,0,1,3.319-1.627,4.031,4.031,0,0,1,3.233,1.4V-16.5h1.987V0h-1.826l-.1-1.246A4.047,4.047,0,0,1,142.527.215a3.97,3.97,0,0,1-3.292-1.654,6.886,6.886,0,0,1-1.273-4.318Zm1.987.226a5.155,5.155,0,0,0,.816,3.094,2.639,2.639,0,0,0,2.256,1.117,2.9,2.9,0,0,0,2.761-1.7V-8.508a2.921,2.921,0,0,0-2.739-1.644,2.652,2.652,0,0,0-2.277,1.128A5.676,5.676,0,0,0,139.949-5.683Z" transform="translate(113 403)" fill="#611122"/></g></svg>