<svg xmlns="http://www.w3.org/2000/svg" width="300" height="97.982" viewBox="0 0 300 97.982"><path d="M2191.547,271.9a37.4,37.4,0,0,1-27.106-11.132,37.22,37.22,0,0,1,0-53.566,37.4,37.4,0,0,1,27.106-11.334,36.306,36.306,0,0,1,26,10.477l-7.308,7.437a26.348,26.348,0,0,0-18.691-7.4,26.06,26.06,0,0,0-19.305,8.214,27.658,27.658,0,0,0,0,38.772,27.561,27.561,0,0,0,38.448.453,21.828,21.828,0,0,0,5.627-12.773h-24.649V230.537h34.875a34.017,34.017,0,0,1,.412,6.411,32.882,32.882,0,0,1-9,24.236A34.986,34.986,0,0,1,2191.547,271.9Zm81.084-6.985a25.143,25.143,0,0,1-34.794,0,24.988,24.988,0,0,1,0-34.908,25.19,25.19,0,0,1,34.794,0,24.937,24.937,0,0,1-.04,34.908Zm-27.114-6.855a13.3,13.3,0,0,0,18.812.614c.21-.2.42-.4.615-.614a15.781,15.781,0,0,0,0-21.237,13.521,13.521,0,0,0-19.111-.4c-.137.129-.275.267-.4.4a15.724,15.724,0,0,0,.04,21.237Zm80.591,6.855a25.143,25.143,0,0,1-34.794,0,24.988,24.988,0,0,1,0-34.908,25.143,25.143,0,0,1,34.794,0,24.988,24.988,0,0,1,0,34.908ZM2299,258.055a13.3,13.3,0,0,0,18.812.614c.21-.2.42-.4.614-.614a15.781,15.781,0,0,0,0-21.237,13.511,13.511,0,0,0-19.1-.4c-.137.129-.275.267-.4.4a15.724,15.724,0,0,0,.04,21.237Zm62.264,35.773a21.54,21.54,0,0,1-13.678-4.357,25.212,25.212,0,0,1-7.971-10.105l9.362-3.9a15.727,15.727,0,0,0,4.64,6.12,11.7,11.7,0,0,0,7.68,2.587,12.339,12.339,0,0,0,9.572-3.694,15.019,15.019,0,0,0,3.411-10.679v-3.533h-.372a15.672,15.672,0,0,1-12.854,5.546,22.3,22.3,0,0,1-16.427-7.146,23.646,23.646,0,0,1-7.025-17.211,23.884,23.884,0,0,1,7.025-17.333,22.255,22.255,0,0,1,16.427-7.187,17.694,17.694,0,0,1,7.559,1.682,15.18,15.18,0,0,1,5.344,3.9h.372v-3.9h10.186v43.744a25.51,25.51,0,0,1-6.532,19.1A23,23,0,0,1,2361.267,293.828Zm.744-31.545a11.953,11.953,0,0,0,9.281-4.107,15.187,15.187,0,0,0,3.735-10.518,15.512,15.512,0,0,0-3.735-10.72,11.927,11.927,0,0,0-9.281-4.107,12.707,12.707,0,0,0-9.612,4.107,14.992,14.992,0,0,0-4.107,10.639A14.716,14.716,0,0,0,2352.4,258.1,12.732,12.732,0,0,0,2362.011,262.283Zm40.623-63.663v71.8h-10.72v-71.8Zm29.41,73.275a23.305,23.305,0,0,1-17.292-7.025,23.78,23.78,0,0,1-6.944-17.413,24.117,24.117,0,0,1,6.694-17.583,22.064,22.064,0,0,1,16.427-6.863,20.747,20.747,0,0,1,8.214,1.6,19.345,19.345,0,0,1,6.281,4.107,28.527,28.527,0,0,1,4.107,4.972,30.067,30.067,0,0,1,2.425,4.8l1.107,2.8-32.854,13.517a12.329,12.329,0,0,0,11.827,7.4,14.021,14.021,0,0,0,12.037-6.775l8.214,5.546a26.979,26.979,0,0,1-7.89,7.478A22.37,22.37,0,0,1,2432.044,271.9Zm-13.719-25.182,21.852-9.079a7.523,7.523,0,0,0-3.412-3.735,11.135,11.135,0,0,0-5.626-1.439,12.684,12.684,0,0,0-8.828,3.9A13.007,13.007,0,0,0,2418.326,246.713Z" transform="translate(-2153.063 -195.86)" fill="#5f6368"/></svg>